<svg width="1024" height="1024" viewBox="0 0 1024 1024" xmlns="http://www.w3.org/2000/svg">
<defs>
<linearGradient id="g" x1="0" y1="0" x2="1" y2="1">
<stop offset="0%" stop-color="#00A3FF"/>
<stop offset="45%" stop-color="#7B3CFF"/>
<stop offset="100%" stop-color="#FF3DF2"/>
</linearGradient>
<filter id="glow"><feGaussianBlur stdDeviation="10" result="b"/><feMerge><feMergeNode in="b"/><feMergeNode in="SourceGraphic"/></feMerge></filter>
</defs>
<rect width="1024" height="1024" rx="140" fill="#050616"/>
<circle cx="512" cy="420" r="270" fill="none" stroke="url(#g)" stroke-width="58" stroke-linecap="round" stroke-dasharray="1030 230" filter="url(#glow)"/>
<text x="512" y="485" text-anchor="middle" font-size="330" font-family="Segoe UI Symbol, Arial" fill="url(#g)" filter="url(#glow)"></text>
<g transform="translate(285 590)">
<rect x="0" y="0" width="70" height="180" rx="14" fill="#fff"/>
<rect x="78" y="0" width="70" height="180" rx="14" fill="#fff"/>
<rect x="156" y="0" width="70" height="180" rx="14" fill="#fff"/>
<rect x="234" y="0" width="70" height="180" rx="14" fill="#fff"/>
<rect x="312" y="0" width="70" height="180" rx="14" fill="#fff"/>
<rect x="45" y="0" width="34" height="105" rx="9" fill="#080816"/>
<rect x="124" y="0" width="34" height="105" rx="9" fill="#080816"/>
<rect x="279" y="0" width="34" height="105" rx="9" fill="#080816"/>
</g>
<text x="512" y="845" text-anchor="middle" font-size="110" font-family="Arial Black, Arial" fill="url(#g)">UAOS</text>
<text x="512" y="910" text-anchor="middle" font-size="34" font-family="Arial" fill="#ffffff">UNIVERSAL ARRANGER OS</text>
<text x="512" y="958" text-anchor="middle" font-size="28" font-family="Arial" fill="#ff62ff">BY AE PLATFORM</text>
</svg>
