<svg xmlns="http://www.w3.org/2000/svg" viewBox="0 0 512 512" role="img" aria-labelledby="title">
  <title id="title">Keyboard Manager app icon</title>
  <rect width="512" height="512" rx="112" fill="#080A0E"/>
  <path d="M96 142c0-27.6 22.4-50 50-50h220.8c16.4 0 31.6 8 41.2 21.2l50 69.6c6.4 8.8 10 19.6 10 30.4V370c0 27.6-22.4 50-50 50H94c-27.6 0-50-22.4-50-50V192c0-13.2 5.2-26 14.8-35.6L96 142Z" fill="#111722"/>
  <path d="M116 147.2C122.4 126.8 141.2 112 162.8 112h194.8c15.2 0 29.6 7.2 38.8 19.6l40.8 55.2H168.4L116 147.2Z" fill="#1B2330"/>
  <path d="M96 216h364v146.4c0 20.8-16.8 37.6-37.6 37.6H133.6C112.8 400 96 383.2 96 362.4V216Z" fill="#F7F8F4"/>
  <path d="M140 216h32v124h-32V216Zm68 0h32v124h-32V216Zm68 0h32v124h-32V216Zm68 0h32v124h-32V216Z" fill="#0B0D12"/>
  <path d="M112 364h332" stroke="#0B0D12" stroke-width="20" stroke-linecap="round"/>
  <path d="M172 156h120" stroke="#55E1D7" stroke-width="20" stroke-linecap="round"/>
  <circle cx="336" cy="152" r="14" fill="#55E1D7"/>
  <circle cx="384" cy="152" r="14" fill="#8D78FF"/>
  <path d="M328 288h46c14.4 0 26-11.6 26-26v-46" fill="none" stroke="#7C82FF" stroke-width="16" stroke-linecap="round"/>
  <circle cx="320" cy="288" r="16" fill="#10151D" stroke="#55E1D7" stroke-width="12"/>
  <circle cx="400" cy="216" r="16" fill="#10151D" stroke="#8D78FF" stroke-width="12"/>
</svg>
