<svg xmlns="http://www.w3.org/2000/svg" viewBox="0 0 128 128" role="img" aria-labelledby="title">
  <title id="title">Keyboard Manager monochrome icon</title>
  <rect width="128" height="128" rx="28" fill="currentColor" opacity=".08"/>
  <path d="M24 35.5C24 28.6 29.6 23 36.5 23h55.2c4.1 0 7.9 2 10.3 5.3l12.5 17.4c1.6 2.2 2.5 4.9 2.5 7.6v39.2c0 6.9-5.6 12.5-12.5 12.5h-81c-6.9 0-12.5-5.6-12.5-12.5V48c0-3.3 1.3-6.5 3.7-8.9l9.3-3.6Z" fill="none" stroke="currentColor" stroke-width="6" stroke-linejoin="round"/>
  <path d="M29 48h86M24 54h91M28 91h83" fill="none" stroke="currentColor" stroke-width="5" stroke-linecap="round"/>
  <path d="M35 56v28M52 56v28M69 56v28M86 56v28" stroke="currentColor" stroke-width="7" stroke-linecap="round"/>
  <path d="M43 39h30M82 72h11.5c3.6 0 6.5-2.9 6.5-6.5V54" fill="none" stroke="currentColor" stroke-width="4" stroke-linecap="round"/>
  <circle cx="84" cy="38" r="4" fill="currentColor"/>
  <circle cx="96" cy="38" r="4" fill="currentColor"/>
  <circle cx="80" cy="72" r="5" fill="currentColor"/>
  <circle cx="100" cy="54" r="5" fill="currentColor"/>
</svg>
