<svg xmlns="http://www.w3.org/2000/svg" viewBox="0 0 64 64">
  <rect width="64" height="64" rx="14" fill="#080A0E"/>
  <path d="M12 18c0-3.4 2.8-6.2 6.2-6.2h27.6c2 0 3.9 1 5.1 2.6L57 23v19c0 3.4-2.8 6.2-6.2 6.2H13.2C9.8 48.2 7 45.4 7 42V24c0-1.6.6-3.2 1.8-4.4L12 18Z" fill="#151B24"/>
  <path d="M12 27h45v14.4c0 2.6-2.1 4.6-4.6 4.6H16.6c-2.6 0-4.6-2.1-4.6-4.6V27Z" fill="#F7F8F4"/>
  <path d="M18 27h4v15h-4V27Zm9 0h4v15h-4V27Zm9 0h4v15h-4V27Zm9 0h4v15h-4V27Z" fill="#0B0D12"/>
  <path d="M21 20h15" stroke="#55E1D7" stroke-width="3" stroke-linecap="round"/>
  <circle cx="43" cy="20" r="2.3" fill="#8D78FF"/>
</svg>
