<svg xmlns="http://www.w3.org/2000/svg" viewBox="0 0 520 128" role="img" aria-labelledby="title desc">
  <title id="title">Keyboard Manager</title>
  <desc id="desc">Horizontal Keyboard Manager logo for dark user interfaces.</desc>
  <defs>
    <linearGradient id="panel" x1="18" y1="17" x2="109" y2="111" gradientUnits="userSpaceOnUse">
      <stop offset="0" stop-color="#202835"/>
      <stop offset="1" stop-color="#0A0D12"/>
    </linearGradient>
    <linearGradient id="accent" x1="34" y1="31" x2="94" y2="96" gradientUnits="userSpaceOnUse">
      <stop offset="0" stop-color="#55E1D7"/>
      <stop offset="1" stop-color="#8D78FF"/>
    </linearGradient>
  </defs>
  <g id="mark">
    <rect width="128" height="128" rx="28" fill="#080A0E"/>
    <path d="M24 35.5C24 28.6 29.6 23 36.5 23h55.2c4.1 0 7.9 2 10.3 5.3l12.5 17.4c1.6 2.2 2.5 4.9 2.5 7.6v39.2c0 6.9-5.6 12.5-12.5 12.5h-81c-6.9 0-12.5-5.6-12.5-12.5V48c0-3.3 1.3-6.5 3.7-8.9l9.3-3.6Z" fill="url(#panel)"/>
    <path d="M29 36.8C30.6 31.7 35.3 28 40.7 28h48.7c3.8 0 7.4 1.8 9.7 4.9l10.2 13.8H42.1L29 36.8Z" fill="#151B24"/>
    <path d="M24 54h91v36.6c0 5.2-4.2 9.4-9.4 9.4H33.4c-5.2 0-9.4-4.2-9.4-9.4V54Z" fill="#F7F8F4"/>
    <path d="M35 54h8v31H35V54Zm17 0h8v31h-8V54Zm17 0h8v31h-8V54Zm17 0h8v31h-8V54Z" fill="#0B0D12"/>
    <path d="M28 91h83" stroke="#0B0D12" stroke-width="5" stroke-linecap="round"/>
    <path d="M43 39h30" stroke="url(#accent)" stroke-width="5" stroke-linecap="round"/>
    <circle cx="84" cy="38" r="3.5" fill="#55E1D7"/>
    <circle cx="96" cy="38" r="3.5" fill="#8D78FF"/>
    <path d="M82 72h11.5c3.6 0 6.5-2.9 6.5-6.5V54" fill="none" stroke="url(#accent)" stroke-width="4" stroke-linecap="round"/>
    <circle cx="80" cy="72" r="4" fill="#10151D" stroke="#55E1D7" stroke-width="3"/>
    <circle cx="100" cy="54" r="4" fill="#10151D" stroke="#8D78FF" stroke-width="3"/>
  </g>
  <text x="154" y="61" fill="#F5F7FA" font-family="Inter, Avenir Next, Segoe UI, Arial, sans-serif" font-size="30" font-weight="760" letter-spacing="1.8">KEYBOARD</text>
  <text x="154" y="94" fill="#F5F7FA" font-family="Inter, Avenir Next, Segoe UI, Arial, sans-serif" font-size="30" font-weight="520" letter-spacing="3.6">MANAGER</text>
  <path d="M154 34h86" stroke="#55E1D7" stroke-width="3" stroke-linecap="round"/>
  <path d="M154 106h258" stroke="#2C3440" stroke-width="2" stroke-linecap="round"/>
</svg>
